HIERARCHY
ROOT Hips
{
	OFFSET -0.001795 -0.223333 0.028219
	CHANNELS 6 Xposition Yposition Zposition Zrotation Yrotation Xrotation 
	JOINT LeftUpLeg
	{
		OFFSET 0.069520 -0.091406 -0.006815
		CHANNELS 3 Zrotation Yrotation Xrotation
		JOINT LeftLeg
		{
			OFFSET 0.034277 -0.375199 -0.004496
			CHANNELS 3 Zrotation Yrotation Xrotation
			JOINT LeftFoot
			{
				OFFSET -0.013596 -0.397961 -0.043693
				CHANNELS 3 Zrotation Yrotation Xrotation
				JOINT LeftToe
				{
					OFFSET 0.026358 -0.055791 0.119288
					CHANNELS 3 Zrotation Yrotation Xrotation
					End Site
					{
						OFFSET 0.000000 0.000000 0.000000
					}
				}
			}
		}
	}
	JOINT RightUpLeg
	{
		OFFSET -0.067670 -0.090522 -0.004320
		CHANNELS 3 Zrotation Yrotation Xrotation
		JOINT RightLeg
		{
			OFFSET -0.038290 -0.382569 -0.008850
			CHANNELS 3 Zrotation Yrotation Xrotation
			JOINT RightFoot
			{
				OFFSET 0.015774 -0.398415 -0.042312
				CHANNELS 3 Zrotation Yrotation Xrotation
				JOINT RightToe
				{
					OFFSET -0.025372 -0.048144 0.123348
					CHANNELS 3 Zrotation Yrotation Xrotation
					End Site
					{
						OFFSET 0.000000 0.000000 0.000000
					}
				}
			}
		}
	}
	JOINT Spine
	{
		OFFSET -0.002533 0.108963 -0.026696
		CHANNELS 3 Zrotation Yrotation Xrotation
		JOINT Spine1
		{
			OFFSET 0.005487 0.135180 0.001092
			CHANNELS 3 Zrotation Yrotation Xrotation
			JOINT Spine2
			{
				OFFSET 0.001457 0.052922 0.025425
				CHANNELS 3 Zrotation Yrotation Xrotation
				JOINT Neck
				{
					OFFSET -0.002778 0.213870 -0.042857
					CHANNELS 3 Zrotation Yrotation Xrotation
					JOINT Head
					{
						OFFSET 0.005152 0.064970 0.051349
						CHANNELS 3 Zrotation Yrotation Xrotation
						End Site
						{
							OFFSET 0.000000 0.000000 0.000000
						}
					}
				}
				JOINT LeftShoulder
				{
					OFFSET 0.078845 0.121749 -0.034090
					CHANNELS 3 Zrotation Yrotation Xrotation
					JOINT LeftArm
					{
						OFFSET 0.090977 0.030469 -0.008868
						CHANNELS 3 Zrotation Yrotation Xrotation
						JOINT LeftForeArm
						{
							OFFSET 0.259612 -0.012772 -0.027456
							CHANNELS 3 Zrotation Yrotation Xrotation
							JOINT LeftHand
							{
								OFFSET 0.249234 0.008986 -0.001171
								CHANNELS 3 Zrotation Yrotation Xrotation
								End Site
								{
									OFFSET 0.000000 0.000000 0.000000
								}
							}
						}
					}
				}
				JOINT RightShoulder
				{
					OFFSET -0.081759 0.118833 -0.038615
					CHANNELS 3 Zrotation Yrotation Xrotation
					JOINT RightArm
					{
						OFFSET -0.096012 0.032551 -0.009143
						CHANNELS 3 Zrotation Yrotation Xrotation
						JOINT RightForeArm
						{
							OFFSET -0.253742 -0.013329 -0.021401
							CHANNELS 3 Zrotation Yrotation Xrotation
							JOINT RightHand
							{
								OFFSET -0.255298 0.007772 -0.005559
								CHANNELS 3 Zrotation Yrotation Xrotation
								End Site
								{
									OFFSET 0.000000 0.000000 0.000000
								}
							}
						}
					}
				}
			}
		}
	}
}
MOTION
Frames: 17
Frame Time: 0.050000
0.241141 0.922668 0.903396 3.105375 -3.991447 4.128649 5.256730 -0.644095 -13.180474 -4.585026 0.620490 7.026721 4.683304 11.090755 7.106654 0.000000 0.000000 0.000000 -11.136279 0.589235 -15.499214 6.832833 -0.849998 13.903494 -6.126474 -15.927022 4.746986 0.000000 0.000000 0.000000 10.680878 -4.247602 32.410370 -4.440227 1.616417 -21.980283 -3.807356 10.138618 22.074568 17.784877 -6.016660 -31.218066 0.000000 0.000000 0.000000 -15.581670 -23.724541 9.161930 -44.456054 -20.497947 0.766319 -138.268231 -77.794143 132.869135 0.000000 0.000000 0.000000 22.238503 12.678889 8.481437 43.610192 42.891972 9.419943 5.181381 53.034740 6.282911 0.000000 0.000000 0.000000 
0.240129 0.922262 0.902189 3.156620 -3.040822 4.122907 5.143525 -0.691172 -13.581001 -4.559143 0.600650 7.266300 4.444123 10.726972 7.110179 0.000000 0.000000 0.000000 -11.162047 0.541788 -15.320322 6.956447 -0.918319 14.045431 -6.581103 -16.853640 4.759657 0.000000 0.000000 0.000000 10.853588 -4.424299 32.536129 -4.632608 1.675432 -22.298441 -3.396841 10.889541 22.307558 18.138843 -6.093850 -31.048346 0.000000 0.000000 0.000000 -15.757455 -23.393489 8.717027 -44.958685 -19.380358 0.422516 -137.137961 -75.725960 129.319084 0.000000 0.000000 0.000000 21.328911 12.267162 8.437693 44.047151 43.145461 9.704253 4.825826 52.174797 6.119989 0.000000 0.000000 0.000000 
0.239423 0.922292 0.901029 3.163488 -2.197944 4.099203 5.101790 -0.729312 -13.971404 -4.590243 0.592243 7.493613 4.105157 10.202587 7.236541 0.000000 0.000000 0.000000 -11.294631 0.490687 -15.256007 7.125090 -0.996291 14.331095 -6.851204 -17.389835 4.714771 0.000000 0.000000 0.000000 10.965014 -4.550701 32.518518 -4.953051 1.774164 -22.229673 -3.165829 11.392991 22.320458 18.681482 -6.283324 -31.006686 0.000000 0.000000 0.000000 -15.582806 -22.800553 8.185736 -45.324230 -18.431037 0.109013 -135.644928 -73.918984 125.517562 0.000000 0.000000 0.000000 20.734280 12.275548 8.577533 44.178368 43.404260 9.915329 4.392253 51.385135 5.850089 0.000000 0.000000 0.000000 
0.238731 0.922205 0.899848 3.116092 -1.561347 4.074561 4.984942 -0.768781 -14.299279 -4.461836 0.558142 7.632539 3.930510 9.958632 7.345662 0.000000 0.000000 0.000000 -11.240194 0.464763 -15.115440 7.096940 -1.018390 14.353293 -7.133551 -17.973765 4.864757 0.000000 0.000000 0.000000 10.967654 -4.645061 32.670190 -4.999901 1.790292 -22.456984 -2.910398 12.067266 22.635457 19.128727 -6.490387 -30.704040 0.000000 0.000000 0.000000 -15.539327 -22.642933 7.867330 -45.265284 -17.494576 -0.208381 -134.801629 -72.942482 123.086242 0.000000 0.000000 0.000000 19.851639 11.979265 8.497831 44.499274 43.562962 10.162230 4.564969 50.730415 5.919033 0.000000 0.000000 0.000000 
0.238012 0.922341 0.898815 2.971498 -1.240376 4.166810 5.031659 -0.782528 -14.549343 -4.280571 0.519395 7.722899 3.698387 9.552080 7.258687 0.000000 0.000000 0.000000 -11.089253 0.467279 -15.182594 7.311638 -1.081540 14.365311 -7.381319 -18.477359 4.756165 0.000000 0.000000 0.000000 10.894866 -4.673639 32.733247 -5.181911 1.840840 -22.411414 -2.673475 12.478203 22.585863 19.584753 -6.768481 -30.312774 0.000000 0.000000 0.000000 -15.164046 -22.093059 7.443769 -45.305081 -16.746282 -0.466403 -134.297962 -72.456302 121.650071 0.000000 0.000000 0.000000 19.203911 12.085071 8.563761 44.184373 43.435973 10.075697 5.281767 50.182986 6.167484 0.000000 0.000000 0.000000 
0.237114 0.922389 0.898040 2.832743 -1.127476 4.145786 5.183290 -0.778185 -14.787553 -4.317759 0.525219 7.902046 3.581814 9.349501 7.241320 0.000000 0.000000 0.000000 -10.945238 0.474584 -15.056140 7.297251 -1.079174 14.189568 -7.562005 -18.854581 4.865031 0.000000 0.000000 0.000000 10.776036 -4.690229 33.025500 -5.205776 1.835704 -23.002895 -2.570865 13.125546 23.044003 19.934299 -6.840883 -30.512486 0.000000 0.000000 0.000000 -14.940942 -21.678491 7.078789 -44.986412 -15.856354 -0.802855 -134.369790 -72.222868 121.104704 0.000000 0.000000 0.000000 18.847001 11.951829 8.593039 43.808758 43.441063 9.950781 6.397886 49.388235 6.569154 0.000000 0.000000 0.000000 
0.236201 0.922290 0.897673 2.695949 -1.216386 4.157828 5.401125 -0.760744 -15.010446 -4.149638 0.498574 8.285669 3.563359 9.273631 7.070681 0.000000 0.000000 0.000000 -10.668244 0.505817 -15.159815 7.321977 -1.079097 14.119075 -7.575213 -18.880244 4.738945 0.000000 0.000000 0.000000 10.491107 -4.614591 33.198621 -5.345985 1.869086 -22.977913 -2.508901 13.467181 22.995478 20.139690 -7.061244 -29.979255 0.000000 0.000000 0.000000 -14.598428 -21.246445 6.792723 -44.718389 -15.072306 -1.074042 -132.913525 -72.103395 118.954245 0.000000 0.000000 0.000000 18.418770 12.071932 8.638921 43.661771 43.337682 9.905887 7.112097 48.657022 6.751643 0.000000 0.000000 0.000000 
0.235367 0.922460 0.897715 2.360969 -1.772961 4.043583 5.682065 -0.713049 -15.046657 -4.018692 0.488078 8.682552 3.689229 9.438597 6.969932 0.000000 0.000000 0.000000 -10.225276 0.562519 -14.749679 7.232824 -1.018247 13.327516 -7.436542 -18.603908 4.819539 0.000000 0.000000 0.000000 10.307306 -4.519647 33.432807 -5.797419 1.971218 -23.112289 -2.417944 14.035236 23.106051 20.280259 -7.023118 -30.295586 0.000000 0.000000 0.000000 -14.744640 -20.873334 6.540624 -43.969485 -14.382513 -1.279454 -132.458481 -72.422492 118.479460 0.000000 0.000000 0.000000 18.185376 11.952739 8.601395 43.696601 43.476481 9.982181 7.690991 48.284679 6.976623 0.000000 0.000000 0.000000 
0.234649 0.922694 0.897891 2.158172 -2.215169 3.957786 5.753123 -0.689008 -14.982379 -3.617541 0.420764 8.890901 3.623231 9.253362 6.796328 0.000000 0.000000 0.000000 -9.986431 0.594414 -14.431339 7.344336 -1.010030 12.662833 -7.308633 -18.364328 5.153830 0.000000 0.000000 0.000000 9.897524 -4.375646 33.755290 -5.997602 2.003362 -23.451463 -2.286630 14.201825 23.536553 20.303795 -7.046534 -30.363120 0.000000 0.000000 0.000000 -14.872909 -20.399140 6.322921 -43.507434 -14.378425 -1.293081 -132.178442 -73.030625 118.714880 0.000000 0.000000 0.000000 17.699578 11.945779 8.494180 43.855222 43.829171 10.201384 8.324451 47.775202 7.173468 0.000000 0.000000 0.000000 
0.233976 0.923166 0.897950 2.029756 -3.053517 3.802493 5.942183 -0.634968 -14.776745 -3.547404 0.426799 9.331139 3.863836 9.610745 6.699099 0.000000 0.000000 0.000000 -9.882230 0.621290 -13.920410 7.456173 -0.986219 11.925996 -6.980022 -17.711935 5.268836 0.000000 0.000000 0.000000 9.586288 -4.189598 33.940339 -6.204942 2.053721 -23.207906 -2.539843 14.254249 23.601412 20.232989 -6.983972 -30.601946 0.000000 0.000000 0.000000 -15.160766 -20.049562 6.226090 -42.905538 -14.776289 -1.151725 -133.892179 -74.490817 122.269979 0.000000 0.000000 0.000000 17.581814 12.114297 8.487857 44.377075 44.333814 10.616051 8.296311 47.464958 7.094068 0.000000 0.000000 0.000000 
0.233352 0.923162 0.897880 1.792989 -4.064751 3.655384 6.136207 -0.584058 -14.859649 -3.473280 0.437743 9.957886 4.128386 9.982234 6.481468 0.000000 0.000000 0.000000 -9.607466 0.669395 -13.655766 7.566857 -0.961317 11.469384 -6.779698 -17.340992 5.436265 0.000000 0.000000 0.000000 9.014721 -3.897095 34.096323 -6.329423 2.064019 -23.491258 -2.660783 14.308624 23.738220 19.938648 -6.779050 -30.979205 0.000000 0.000000 0.000000 -15.521069 -20.284608 6.442991 -42.483139 -15.619373 -0.878492 -136.911624 -76.913996 128.173700 0.000000 0.000000 0.000000 17.857860 12.437569 8.634960 44.699541 44.879982 10.927299 8.139455 46.963694 6.906135 0.000000 0.000000 0.000000 
0.232818 0.923130 0.897819 1.464580 -5.237406 3.462266 6.716951 -0.469769 -14.645179 -3.821845 0.547321 10.556817 4.579843 10.712890 6.388112 0.000000 0.000000 0.000000 -9.331669 0.717532 -13.414193 7.553270 -0.912650 11.253856 -6.291432 -16.385300 5.537423 0.000000 0.000000 0.000000 8.424018 -3.562917 34.073279 -6.578876 2.114308 -23.293355 -3.025423 13.856833 23.904524 19.467103 -6.581146 -31.304981 0.000000 0.000000 0.000000 -15.302098 -20.565751 6.836946 -42.113184 -17.748718 -0.277001 -147.175792 -80.318229 143.150545 0.000000 0.000000 0.000000 18.575471 12.972154 8.849746 44.760256 45.735904 11.234284 8.279087 46.804292 6.855061 0.000000 0.000000 0.000000 
0.232559 0.922704 0.897977 1.008101 -6.639250 2.942601 7.285117 -0.339885 -14.297505 -3.897515 0.615893 11.371046 4.888123 11.164471 6.197463 0.000000 0.000000 0.000000 -8.902757 0.764021 -13.004668 7.628646 -0.877521 11.289201 -5.817366 -15.456035 5.557195 0.000000 0.000000 0.000000 7.763250 -3.202668 34.442505 -6.671102 2.125758 -23.319807 -3.407035 13.417840 24.017555 18.722172 -6.343444 -31.260785 0.000000 0.000000 0.000000 -15.101235 -21.509935 7.563229 -41.539429 -20.322344 0.467874 -167.099698 -83.683609 167.803817 0.000000 0.000000 0.000000 19.214579 13.305020 8.884964 45.592225 46.531829 11.851313 9.057351 46.838813 7.134895 0.000000 0.000000 0.000000 
0.232545 0.922576 0.898341 0.631630 -8.469599 2.371420 7.813631 -0.197012 -13.561014 -4.240892 0.770649 12.141251 5.632438 12.407189 6.028825 0.000000 0.000000 0.000000 -8.535550 0.803139 -12.428255 7.628527 -0.811309 11.229938 -5.177723 -14.131307 5.275920 0.000000 0.000000 0.000000 7.022541 -2.756677 34.776853 -6.720034 2.128129 -22.846984 -3.915542 12.777672 23.598192 17.798725 -5.999987 -31.351343 0.000000 0.000000 0.000000 -14.786311 -22.529401 8.377622 -40.560088 -22.690165 1.140832 132.575210 -85.177582 -126.193325 0.000000 0.000000 0.000000 19.748970 14.009038 8.967026 46.812658 46.928447 12.521191 10.301712 47.379838 7.676706 0.000000 0.000000 0.000000 
0.232645 0.922373 0.898813 0.320342 -9.537543 1.863821 8.144375 -0.106725 -12.762611 -4.452497 0.869895 12.498943 6.047173 13.101626 5.761504 0.000000 0.000000 0.000000 -8.235218 0.812395 -11.901057 7.370861 -0.729414 11.216764 -4.917140 -13.696934 5.578959 0.000000 0.000000 0.000000 6.418100 -2.423750 34.694025 -6.731506 2.124040 -22.690053 -4.347589 11.890875 23.639889 17.047204 -5.794574 -31.375256 0.000000 0.000000 0.000000 -14.439624 -23.998130 9.383017 -38.797818 -25.915109 1.941759 78.069510 -80.475558 -65.900905 0.000000 0.000000 0.000000 20.366546 14.279482 8.834549 48.077856 46.172538 12.599152 11.731849 49.361169 8.680792 0.000000 0.000000 0.000000 
0.232588 0.922800 0.898935 0.032577 -10.309392 1.516327 8.443866 -0.036896 -12.083957 -4.605114 0.931830 12.433723 6.317813 13.576488 5.954406 0.000000 0.000000 0.000000 -7.903115 0.813676 -11.366558 7.125146 -0.661388 10.860657 -4.365887 -12.613560 5.661057 0.000000 0.000000 0.000000 5.732644 -2.111837 34.715561 -6.557993 2.077434 -22.369003 -5.448580 10.599367 23.259871 15.941704 -5.445584 -31.190549 0.000000 0.000000 0.000000 -13.850753 -25.340980 10.302480 -36.116026 -28.770901 2.463766 60.005271 -71.876895 -42.411278 0.000000 0.000000 0.000000 21.051288 14.485479 8.603360 50.480759 44.979004 12.922372 14.221503 52.259168 10.509422 0.000000 0.000000 0.000000 
0.232473 0.923494 0.898448 -0.309672 -11.108398 1.342759 8.692304 0.024703 -11.843741 -4.741847 0.995823 12.483996 6.772405 14.382001 6.530117 0.000000 0.000000 0.000000 -7.626149 0.827598 -11.155869 7.154457 -0.640358 10.894295 -4.102239 -12.182129 5.915747 0.000000 0.000000 0.000000 5.027575 -1.792360 34.486741 -6.540523 2.066879 -22.074963 -6.095568 9.517146 23.056080 15.582378 -5.390126 -31.463276 0.000000 0.000000 0.000000 -12.799561 -26.664700 11.067664 -33.653495 -31.741647 2.907878 53.406209 -61.254448 -30.369382 0.000000 0.000000 0.000000 22.020250 14.055057 8.071086 52.601684 43.281270 12.798363 16.975092 55.618388 12.804838 0.000000 0.000000 0.000000 
